<mxfile host="drawio-plugin" modified="2024-01-11T18:37:14.816Z" agent="5.0 (Windows NT 6.2; Win64; x64) AppleWebKit/537.36 (KHTML, like Gecko) Chrome/104.0.5112.102 Safari/537.36" etag="xHxp_rhg6OMV0C3FNMIj" version="20.5.3" type="embed"><diagram id="yj2_FsNJsZjDtDr8uL98" name="Page-1"><mxGraphModel dx="664" dy="563" grid="1" gridSize="10" guides="1" tooltips="1" connect="1" arrows="1" fold="1" page="1" pageScale="1" pageWidth="850" pageHeight="1100" math="0" shadow="0"><root><mxCell id="0"/><mxCell id="1" parent="0"/><mxCell id="12" value="«interface»&lt;br&gt;&lt;b&gt;Level&lt;/b&gt;" style="html=1;fillColor=#60a917;fontColor=#ffffff;strokeColor=#2D7600;" vertex="1" parent="1"><mxGeometry x="280" y="20" width="200" height="30" as="geometry"/></mxCell><mxCell id="13" value="&lt;p style=&quot;margin: 4px 0px 0px;&quot;&gt;+ method:continueCooking()&amp;nbsp; &amp;nbsp; &amp;nbsp; &amp;nbsp;void&lt;br&gt;&lt;br&gt;&lt;/p&gt;" style="verticalAlign=top;align=left;overflow=fill;fontSize=12;fontFamily=Helvetica;html=1;fillColor=#6d8764;fontColor=#ffffff;strokeColor=#3A5431;" vertex="1" parent="1"><mxGeometry x="280" y="50" width="200" height="20" as="geometry"/></mxCell><mxCell id="14" value="SpoiledLevel" style="swimlane;fontStyle=1;align=center;verticalAlign=top;childLayout=stackLayout;horizontal=1;startSize=26;horizontalStack=0;resizeParent=1;resizeParentMax=0;resizeLast=0;collapsible=1;marginBottom=0;fillColor=#1ba1e2;fontColor=#ffffff;strokeColor=#006EAF;" vertex="1" parent="1"><mxGeometry x="30" y="140" width="200" height="46" as="geometry"/></mxCell><mxCell id="22" value="&lt;p style=&quot;margin: 4px 0px 0px;&quot;&gt;+ method:startCooking()&amp;nbsp; &amp;nbsp; &amp;nbsp; &amp;nbsp; &amp;nbsp; &amp;nbsp; &amp;nbsp;void&lt;br&gt;&lt;br&gt;&lt;/p&gt;" style="verticalAlign=top;align=left;overflow=fill;fontSize=12;fontFamily=Helvetica;html=1;fillColor=#6d8764;fontColor=#ffffff;strokeColor=#3A5431;" vertex="1" parent="14"><mxGeometry y="26" width="200" height="20" as="geometry"/></mxCell><mxCell id="17" value="WellDoneLevel" style="swimlane;fontStyle=1;align=center;verticalAlign=top;childLayout=stackLayout;horizontal=1;startSize=26;horizontalStack=0;resizeParent=1;resizeParentMax=0;resizeLast=0;collapsible=1;marginBottom=0;fillColor=#1ba1e2;fontColor=#ffffff;strokeColor=#006EAF;" vertex="1" parent="1"><mxGeometry x="450" y="140" width="200" height="52" as="geometry"/></mxCell><mxCell id="23" value="&lt;p style=&quot;margin: 4px 0px 0px;&quot;&gt;+ method:startCooking()&amp;nbsp; &amp;nbsp; &amp;nbsp; &amp;nbsp; &amp;nbsp; &amp;nbsp; &amp;nbsp;void&lt;br&gt;&lt;br&gt;&lt;/p&gt;" style="verticalAlign=top;align=left;overflow=fill;fontSize=12;fontFamily=Helvetica;html=1;fillColor=#6d8764;fontColor=#ffffff;strokeColor=#3A5431;" vertex="1" parent="17"><mxGeometry y="26" width="200" height="26" as="geometry"/></mxCell><mxCell id="20" value="&lt;p style=&quot;margin: 4px 0px 0px;&quot;&gt;+ method:finishCooking()&amp;nbsp; &amp;nbsp; &amp;nbsp; &amp;nbsp; &amp;nbsp; &amp;nbsp; void&lt;br&gt;&lt;br&gt;&lt;/p&gt;" style="verticalAlign=top;align=left;overflow=fill;fontSize=12;fontFamily=Helvetica;html=1;fillColor=#6d8764;fontColor=#ffffff;strokeColor=#3A5431;" vertex="1" parent="1"><mxGeometry x="280" y="70" width="200" height="20" as="geometry"/></mxCell><mxCell id="21" value="&lt;p style=&quot;margin: 4px 0px 0px;&quot;&gt;+ method:startCooking()&amp;nbsp; &amp;nbsp; &amp;nbsp; &amp;nbsp; &amp;nbsp; &amp;nbsp; &amp;nbsp;void&lt;br&gt;&lt;br&gt;&lt;/p&gt;" style="verticalAlign=top;align=left;overflow=fill;fontSize=12;fontFamily=Helvetica;html=1;fillColor=#6d8764;fontColor=#ffffff;strokeColor=#3A5431;" vertex="1" parent="1"><mxGeometry x="280" y="90" width="200" height="20" as="geometry"/></mxCell><mxCell id="24" value="&lt;p style=&quot;margin: 4px 0px 0px;&quot;&gt;+ method:finishCooking()&amp;nbsp; &amp;nbsp; &amp;nbsp; &amp;nbsp; &amp;nbsp; &amp;nbsp; void&lt;br&gt;&lt;br&gt;&lt;/p&gt;" style="verticalAlign=top;align=left;overflow=fill;fontSize=12;fontFamily=Helvetica;html=1;fillColor=#6d8764;fontColor=#ffffff;strokeColor=#3A5431;" vertex="1" parent="1"><mxGeometry x="30" y="186" width="200" height="20" as="geometry"/></mxCell><mxCell id="25" value="&lt;p style=&quot;margin: 4px 0px 0px;&quot;&gt;+ method:continueCooking()&amp;nbsp; &amp;nbsp; &amp;nbsp; &amp;nbsp;void&lt;br&gt;&lt;br&gt;&lt;/p&gt;" style="verticalAlign=top;align=left;overflow=fill;fontSize=12;fontFamily=Helvetica;html=1;fillColor=#6d8764;fontColor=#ffffff;strokeColor=#3A5431;" vertex="1" parent="1"><mxGeometry x="30" y="206" width="200" height="20" as="geometry"/></mxCell><mxCell id="26" value="&lt;p style=&quot;margin: 4px 0px 0px;&quot;&gt;+ method:finishCooking()&amp;nbsp; &amp;nbsp; &amp;nbsp; &amp;nbsp; &amp;nbsp; &amp;nbsp; void&lt;br&gt;&lt;br&gt;&lt;/p&gt;" style="verticalAlign=top;align=left;overflow=fill;fontSize=12;fontFamily=Helvetica;html=1;fillColor=#6d8764;fontColor=#ffffff;strokeColor=#3A5431;" vertex="1" parent="1"><mxGeometry x="450" y="186" width="200" height="20" as="geometry"/></mxCell><mxCell id="27" value="&lt;p style=&quot;margin: 4px 0px 0px;&quot;&gt;+ method:continueCooking()&amp;nbsp; &amp;nbsp; &amp;nbsp; &amp;nbsp;void&lt;br&gt;&lt;br&gt;&lt;/p&gt;" style="verticalAlign=top;align=left;overflow=fill;fontSize=12;fontFamily=Helvetica;html=1;fillColor=#6d8764;fontColor=#ffffff;strokeColor=#3A5431;" vertex="1" parent="1"><mxGeometry x="450" y="206" width="200" height="20" as="geometry"/></mxCell><mxCell id="28" value="" style="endArrow=block;dashed=1;endFill=0;endSize=12;html=1;rounded=0;fillColor=#60a917;strokeColor=#80FF00;entryX=0;entryY=0.25;entryDx=0;entryDy=0;" edge="1" parent="1" target="13"><mxGeometry width="160" relative="1" as="geometry"><mxPoint x="180.1400000000001" y="106" as="sourcePoint"/><mxPoint x="231.18000000000006" y="80" as="targetPoint"/><Array as="points"><mxPoint x="120" y="140"/><mxPoint x="180" y="106.39999999999998"/></Array></mxGeometry></mxCell><mxCell id="29" value="" style="endArrow=block;dashed=1;endFill=0;endSize=12;html=1;rounded=0;fillColor=#60a917;strokeColor=#80FF00;" edge="1" parent="1"><mxGeometry width="160" relative="1" as="geometry"><mxPoint x="550.1400000000001" y="136" as="sourcePoint"/><mxPoint x="480" y="60" as="targetPoint"/><Array as="points"><mxPoint x="550" y="136.39999999999998"/></Array></mxGeometry></mxCell><mxCell id="33" value="OnionHDog" style="swimlane;fontStyle=1;align=center;verticalAlign=top;childLayout=stackLayout;horizontal=1;startSize=26;horizontalStack=0;resizeParent=1;resizeParentMax=0;resizeLast=0;collapsible=1;marginBottom=0;fillColor=#1ba1e2;fontColor=#ffffff;strokeColor=#006EAF;" vertex="1" parent="1"><mxGeometry x="40" y="280" width="200" height="48" as="geometry"/></mxCell><mxCell id="34" value="+ field: currentLevel                 Level" style="text;strokeColor=#432D57;fillColor=#76608a;align=left;verticalAlign=top;spacingLeft=4;spacingRight=4;overflow=hidden;rotatable=0;points=[[0,0.5],[1,0.5]];portConstraint=eastwest;fontColor=#ffffff;" vertex="1" parent="33"><mxGeometry y="26" width="200" height="22" as="geometry"/></mxCell><mxCell id="37" value="&lt;p style=&quot;margin: 4px 0px 0px;&quot;&gt;+ method:startCooking()&amp;nbsp; &amp;nbsp; &amp;nbsp; &amp;nbsp; &amp;nbsp; &amp;nbsp; &amp;nbsp;void&lt;br&gt;&lt;br&gt;&lt;/p&gt;" style="verticalAlign=top;align=left;overflow=fill;fontSize=12;fontFamily=Helvetica;html=1;fillColor=#6d8764;fontColor=#ffffff;strokeColor=#3A5431;" vertex="1" parent="1"><mxGeometry x="40" y="328" width="200" height="20" as="geometry"/></mxCell><mxCell id="38" value="&lt;p style=&quot;margin: 4px 0px 0px;&quot;&gt;+ method:continueCooking()&amp;nbsp; &amp;nbsp; &amp;nbsp; &amp;nbsp;void&lt;br&gt;&lt;br&gt;&lt;/p&gt;" style="verticalAlign=top;align=left;overflow=fill;fontSize=12;fontFamily=Helvetica;html=1;fillColor=#6d8764;fontColor=#ffffff;strokeColor=#3A5431;" vertex="1" parent="1"><mxGeometry x="40" y="348" width="200" height="20" as="geometry"/></mxCell><mxCell id="39" value="&lt;p style=&quot;margin: 4px 0px 0px;&quot;&gt;+ method:finishCooking()&amp;nbsp; &amp;nbsp; &amp;nbsp; &amp;nbsp; &amp;nbsp; &amp;nbsp; void&lt;br&gt;&lt;br&gt;&lt;/p&gt;" style="verticalAlign=top;align=left;overflow=fill;fontSize=12;fontFamily=Helvetica;html=1;fillColor=#6d8764;fontColor=#ffffff;strokeColor=#3A5431;" vertex="1" parent="1"><mxGeometry x="40" y="368" width="200" height="20" as="geometry"/></mxCell><mxCell id="40" value="&lt;p style=&quot;margin: 4px 0px 0px;&quot;&gt;+ method:setState(Level)&amp;nbsp; &amp;nbsp; &amp;nbsp; &amp;nbsp; &amp;nbsp; &amp;nbsp; void&lt;br&gt;&lt;br&gt;&lt;/p&gt;" style="verticalAlign=top;align=left;overflow=fill;fontSize=12;fontFamily=Helvetica;html=1;fillColor=#6d8764;fontColor=#ffffff;strokeColor=#3A5431;" vertex="1" parent="1"><mxGeometry x="40" y="388" width="200" height="20" as="geometry"/></mxCell></root></mxGraphModel></diagram></mxfile>